#!OML:ASF H:\ManfredObstacles\Project 1\Capture day 2\Session 1\male.ASF
:FULLY-SPECIFIED
:DEGREES
565
root 1.1927 16.0047 -15.7178 -175.21 3.44925 176.564
lowerback -6.36686 0.0869085 -4.94888
upperback 1.52831 0.589568 -0.676509
thorax 5.12929 0.161997 2.13932
lowerneck -33.4451 0.0940062 2.46796
upperneck 36.9865 0.517379 -0.607291
head 20.1793 0.992092 -0.401656
rclavicle 1.5235e-015 9.6659e-015
rhumerus -39.7755 -23.1927 -73.1716
rradius 24.6491
rwrist 38.391
rhand -0.261985 -5.34475
rfingers 7.12502
rthumb 25.3394 -33.6813
lclavicle 1.5235e-015 9.6659e-015
lhumerus -29.1153 14.0877 81.7955
lradius 22.1589
lwrist -50.9471
lhand 1.95183 5.21023
lfingers 7.12502
lthumb 27.4585 33.2287
rfemur -17.629 9.05146 18.7262
rtibia 32.4043
rfoot -9.89889 -15.164
rtoes -10.613
lfemur -12.4363 -7.30839 -26.6756
ltibia 26.3554
lfoot -4.4704 19.5896
ltoes 7.72612
566
root 1.20397 16.0087 -15.7523 -175.066 3.39298 176.565
lowerback -6.61711 0.076713 -4.9393
upperback 1.51261 0.591043 -0.690849
thorax 5.25525 0.160603 2.12123
lowerneck -33.7426 -0.145799 1.98256
upperneck 37.193 0.247718 -0.185489
head 20.3791 0.892074 -0.173029
rclavicle -1.67259e-015 1.18898e-014
rhumerus -39.72 -23.3824 -73.112
rradius 24.5688
rwrist 38.6559
rhand -0.299099 -5.38663
rfingers 7.12502
rthumb 25.3039 -33.7282
lclavicle -1.67259e-015 1.18898e-014
lhumerus -29.388 14.4749 81.5095
lradius 21.9243
lwrist -51.5234
lhand 2.00556 5.08238
lfingers 7.12502
lthumb 27.5099 33.0927
rfemur -17.5021 8.79907 18.778
rtibia 32.1879
rfoot -10.0141 -15.0466
rtoes -10.6399
lfemur -12.4205 -7.36818 -26.6498
ltibia 26.3191
lfoot -4.45642 19.6421
ltoes 7.6239
567
root 1.21878 16.0112 -15.7765 -174.982 3.29604 176.664
lowerback -6.68306 0.0335589 -4.91852
upperback 1.49584 0.529507 -0.624945
thorax 5.27905 0.128498 2.17195
lowerneck -33.9159 -0.0776155 2.14329
upperneck 37.2194 0.291086 -0.298863
head 20.4419 0.910874 -0.247346
rclavicle 1.89855e-016 -1.29086e-014
rhumerus -39.6774 -23.3438 -73.1283
rradius 24.6751
rwrist 38.7857
rhand -0.287727 -5.33499
rfingers 7.12502
rthumb 25.3148 -33.6751
lclavicle 1.89855e-016 -1.29086e-014
lhumerus -29.6394 14.813 81.3451
lradius 21.6071
lwrist -51.263
lhand 1.92345 5.20873
lfingers 7.12502
lthumb 27.4314 33.2315
rfemur -17.3547 8.81175 18.9603
rtibia 31.968
rfoot -10.0266 -15.1564
rtoes -10.4645
lfemur -12.4147 -7.48161 -26.4882
ltibia 26.3171
lfoot -4.45963 19.6877
ltoes 7.43773
568
root 1.23264 16.0141 -15.805 -174.876 3.1782 176.751
lowerback -6.75329 0.0213602 -4.89545
upperback 1.38831 0.508384 -0.58487
thorax 5.20721 0.120996 2.1987
lowerneck -33.9092 -0.208915 1.97924
upperneck 37.3709 0.15354 -0.15756
head 20.5344 0.870027 -0.179121
rclavicle 9.99902e-015 -1.16103e-014
rhumerus -39.7875 -23.3687 -73.0623
rradius 24.6327
rwrist 38.5727
rhand -0.511758 -5.33017
rfingers 7.12502
rthumb 25.1001 -33.7004
lclavicle 9.99902e-015 -1.16103e-014
lhumerus -30.0027 15.5364 80.9151
lradius 21.1644
lwrist -52.2759
lhand 2.0302 4.9303
lfingers 7.12502
lthumb 27.5335 32.9369
rfemur -17.206 8.67095 19.1137
rtibia 31.7549
rfoot -10.1266 -15.1208
rtoes -10.3806
lfemur -12.4071 -7.59095 -26.3448
ltibia 26.3124
lfoot -4.52967 19.7628
ltoes 7.47518
569
root 1.2434 16.0162 -15.8331 -174.795 3.07322 176.806
lowerback -6.91004 0.00238789 -4.84227
upperback 1.4428 0.48927 -0.58346
thorax 5.35523 0.108645 2.16946
lowerneck -34.283 -0.228259 1.96036
upperneck 37.487 0.0832743 -0.0949977
head 20.706 0.848789 -0.162179
rclavicle 1.55223e-015 -3.44146e-015
rhumerus -39.6375 -23.5258 -73.1043
rradius 24.6511
rwrist 38.6585
rhand -0.629722 -5.41662
rfingers 7.12502
rthumb 24.9871 -33.8027
lclavicle 1.55223e-015 -3.44146e-015
lhumerus -30.116 15.8999 80.6802
lradius 20.7971
lwrist -52.5137
lhand 1.89781 4.95339
lfingers 7.12502
lthumb 27.4069 32.9801
rfemur -17.046 8.43254 19.2188
rtibia 31.5527
rfoot -10.2747 -14.9715
rtoes -10.2358
lfemur -12.3754 -7.71337 -26.2561
ltibia 26.3232
lfoot -4.54951 19.8457
ltoes 7.52149
570
root 1.25582 16.0188 -15.858 -174.687 3.01474 176.893
lowerback -7.00939 -0.00764394 -4.79708
upperback 1.37487 0.47193 -0.541822
thorax 5.34132 0.101637 2.18609
lowerneck -34.0698 -0.320197 1.78963
upperneck 37.2879 -0.0284689 0.0251635
head 20.5206 0.791914 -0.105741
rclavicle 6.62357e-016 -1.63314e-014
rhumerus -39.7838 -23.485 -73.0645
rradius 24.7908
rwrist 38.6965
rhand -0.755708 -5.46089
rfingers 7.12502
rthumb 24.8663 -33.8637
lclavicle 6.62357e-016 -1.63314e-014
lhumerus -30.4747 16.6032 80.2773
lradius 20.5215
lwrist -53.3643
lhand 2.17013 4.78397
lfingers 7.12502
lthumb 27.6673 32.7692
rfemur -16.9413 8.37128 19.3521
rtibia 31.3531
rfoot -10.3145 -14.9171
rtoes -10.096
lfemur -12.3919 -7.77563 -26.1151
ltibia 26.3197
lfoot -4.61375 19.9077
ltoes 7.55494
571
root 1.26568 16.0194 -15.8841 -174.628 2.87411 176.949
lowerback -6.98619 -0.0669523 -4.75533
upperback 1.30823 0.383417 -0.515265
thorax 5.26445 0.0613236 2.17998
lowerneck -34.1344 -0.186045 2.09888
upperneck 37.266 0.0978805 -0.236044
head 20.5247 0.840065 -0.259515
rclavicle 2.63196e-015 4.16205e-015
rhumerus -39.7941 -23.4967 -73.0232
rradius 24.8165
rwrist 38.7404
rhand -0.799266 -5.31441
rfingers 7.12502
rthumb 24.8246 -33.7229
lclavicle 2.63196e-015 4.16205e-015
lhumerus -30.7814 17.014 79.978
lradius 20.1619
lwrist -53.3317
lhand 2.12689 4.82888
lfingers 7.12502
lthumb 27.6259 32.8207
rfemur -16.757 8.0662 19.4566
rtibia 31.1398
rfoot -10.395 -14.739
rtoes -10.0569
lfemur -12.3533 -7.88796 -26.0267
ltibia 26.3544
lfoot -4.72182 19.9687
ltoes 7.76153
572
root 1.2761 16.0202 -15.9105 -174.579 2.80478 176.988
lowerback -7.02226 -0.0732297 -4.7232
upperback 1.23183 0.372794 -0.524915
thorax 5.20558 0.0599873 2.15079
lowerneck -33.8266 -0.410443 1.75754
upperneck 37.1341 -0.157895 0.027931
head 20.3576 0.734939 -0.135917
rclavicle 4.36394e-016 -1.21756e-014
rhumerus -39.9017 -23.509 -73.0439
rradius 24.9035
rwrist 38.3977
rhand -0.904885 -5.56028
rfingers 7.12502
rthumb 24.7234 -33.9827
lclavicle 4.36394e-016 -1.21756e-014
lhumerus -31.1835 17.7391 79.4315
lradius 19.858
lwrist -54.4273
lhand 2.18768 4.55134
lfingers 7.12502
lthumb 27.6841 32.5338
rfemur -16.5802 7.77222 19.5461
rtibia 30.9318
rfoot -10.4907 -14.5162
rtoes -10.2156
lfemur -12.3079 -8.02131 -25.9593
ltibia 26.3872
lfoot -4.76729 20.1033
ltoes 7.82728
573
root 1.29609 16.0194 -15.9334 -174.547 2.97357 177.236
lowerback -7.05232 0.00984295 -4.64975
upperback 1.2422 0.469962 -0.417928
thorax 5.22575 0.106332 2.23225
lowerneck -34.0969 -0.247789 2.13956
upperneck 37.1867 -0.0342133 -0.244703
head 20.4616 0.791459 -0.307821
rclavicle -4.96962e-017 1.963e-015
rhumerus -39.8602 -23.689 -72.9368
rradius 24.9004
rwrist 38.5089
rhand -1.00056 -5.51747
rfingers 7.12502
rthumb 24.6317 -33.9524
lclavicle -4.96962e-017 1.963e-015
lhumerus -31.4021 18.336 79.0741
lradius 19.5385
lwrist -55.191
lhand 2.27781 4.488
lfingers 7.12502
lthumb 27.7702 32.4566
rfemur -16.4369 8.18733 19.883
rtibia 30.7237
rfoot -10.394 -14.6746
rtoes -10.0263
lfemur -12.2822 -8.00112 -25.6271
ltibia 26.4427
lfoot -4.84305 20.3207
ltoes 7.91326
574
root 1.3068 16.0197 -15.9596 -174.538 2.86907 177.277
lowerback -7.15516 -0.0240084 -4.63787
upperback 1.26973 0.429732 -0.409478
thorax 5.31603 0.08407 2.23059
lowerneck -34.2399 -0.441256 1.80022
upperneck 37.5076 -0.20883 0.0369385
head 20.7041 0.741025 -0.144339
rclavicle 2.49413e-015 -1.61513e-015
rhumerus -39.8018 -23.6091 -73.0093
rradius 24.9661
rwrist 38.2555
rhand -1.13873 -5.57887
rfingers 7.12502
rthumb 24.4992 -34.0318
lclavicle 2.49413e-015 -1.61513e-015
lhumerus -31.5993 19.2544 78.5102
lradius 19.1255
lwrist -56.4493
lhand 2.04473 4.22978
lfingers 7.12502
lthumb 27.5474 32.2341
rfemur -16.2302 7.76907 19.9857
rtibia 30.5449
rfoot -10.5277 -14.3887
rtoes -9.85774
lfemur -12.191 -8.04425 -25.5559
ltibia 26.4751
lfoot -4.97768 20.3437
ltoes 7.99305
575
root 1.31728 16.0207 -15.9767 -174.493 2.85814 177.351
lowerback -7.09592 -0.0150096 -4.6045
upperback 1.23851 0.433111 -0.394104
thorax 5.24928 0.0883139 2.22777
lowerneck -34.2046 -0.29796 2.15197
upperneck 37.0566 -0.167298 -0.238677
head 20.4041 0.731411 -0.346914
rclavicle -2.61837e-015 2.78299e-015
rhumerus -39.7676 -23.6006 -73.0343
rradius 24.9498
rwrist 38.059
rhand -1.1832 -5.59259
rfingers 7.12502
rthumb 24.4566 -34.0513
lclavicle -2.61837e-015 2.78299e-015
lhumerus -31.9061 20.0203 78.0328
lradius 18.9096
lwrist -57.208
lhand 2.22495 4.30387
lfingers 7.12502
lthumb 27.7197 32.2806
rfemur -16.1206 7.65972 20.115
rtibia 30.3798
rfoot -10.5784 -14.29
rtoes -9.86682
lfemur -12.1811 -8.06976 -25.4397
ltibia 26.5084
lfoot -5.07538 20.4308
ltoes 8.11664
576
root 1.32709 16.0204 -15.9976 -174.461 2.81422 177.362
lowerback -7.19822 -0.0246192 -4.61751
upperback 1.2564 0.428215 -0.398323
thorax 5.32656 0.0836155 2.23088
lowerneck -34.2771 -0.493314 1.77133
upperneck 37.2946 -0.35997 0.113325
head 20.5747 0.675629 -0.147598
rclavicle -5.61567e-015 6.18717e-015
rhumerus -39.609 -23.4614 -73.198
rradius 24.9676
rwrist 37.5464
rhand -1.25981 -5.73603
rfingers 7.12502
rthumb 24.3832 -34.2047
lclavicle -5.61567e-015 6.18717e-015
lhumerus -32.0591 20.6871 77.6391
lradius 18.5932
lwrist -57.5461
lhand 2.17585 4.50502
lfingers 7.12502
lthumb 27.6728 32.4893
rfemur -16.0083 7.23807 20.1792
rtibia 30.2651
rfoot -10.7062 -13.9614
rtoes -9.82414
lfemur -12.1106 -8.0742 -25.4022
ltibia 26.4914
lfoot -5.10305 20.4564
ltoes 8.14745
